<svg width="165" height="83" viewBox="0 0 165 83" fill="none" xmlns="http://www.w3.org/2000/svg">
<g clip-path="url(#clip0_1_85)">
<path fill-rule="evenodd" clip-rule="evenodd" d="M72.3488 42.7017C71.1438 43.0941 69.6061 43.2681 68.355 43.2681C67.7368 43.1473 67.5747 42.8547 67.4532 42.2611C67.3857 41.865 67.3857 41.5871 67.4532 41.1911C67.6687 40.3486 68.0795 40.2603 68.9348 40.1211C70.0733 40.0416 71.2102 39.9435 72.3488 39.8693L72.5421 39.8064V40.2469V41.1911V42.7017H72.3488ZM93.3597 40.4836C93.5093 39.7526 93.6963 39.4989 94.4548 39.3506C95.7768 39.1661 97.1196 39.1172 98.4486 38.973V41.8683H98.2553C97.1083 42.1484 95.9553 42.3388 94.7769 42.4347H94.1327C93.5834 42.3006 93.4641 41.875 93.3597 41.3647V40.4836ZM117.323 36.4553C117.048 38.6017 116.282 39.3377 114.424 39.5395C113.407 39.5395 112.406 39.4136 111.396 39.4136V30.9794C112.182 30.9794 113.44 30.3633 114.295 30.2241C116.882 30.2241 117.213 32.3128 117.387 34.693V35.8259L117.323 36.4553ZM79.639 50.8689H95.9364V47.47C97.2107 47.47 98.6646 46.9171 99.8658 46.5259H99.9302L99.9946 46.5889C100.657 47.2365 102.645 47.5087 103.537 47.5959H105.663V50.8689H111.396L111.399 44.7541L111.976 44.8895L112.878 44.9524H115.39C120.085 44.5701 122.717 41.9036 123.184 37.3365L123.249 36.77V33.3083L123.184 32.7418C122.758 28.5748 121.31 25.8381 116.936 25.1259H114.166C111.327 25.5221 108.501 25.9886 105.663 26.3847L105.599 42.4977C105.225 42.4644 104.653 42.518 104.375 42.2459L104.31 42.183L104.246 33.56L104.182 32.7418C103.817 29.1764 102.084 27.4069 98.513 26.8253L97.6112 26.7624H96.1941L94.9701 26.8253C92.8214 27.0586 90.651 27.2288 88.5285 27.6436V32.7418H88.915C91.1298 32.6065 93.3318 32.3954 95.5499 32.3012H97.3535C98.0027 32.428 98.2528 32.6664 98.3842 33.3083V34.0636C96.8609 34.2124 95.3352 34.3058 93.8106 34.4412C90.3702 34.8614 88.2453 36.202 87.5622 39.5395L87.4978 40.1059V41.8053L87.5622 42.4347C87.8676 43.9267 88.3393 45.0828 89.4303 46.1483L89.4948 46.2112L85.5009 46.2742V25.1259L85.4365 25.0629H79.639C79.6167 31.1196 79.6258 37.2871 79.6332 43.3276C79.0966 43.2878 78.4067 43.3909 78.4018 42.7235L78.3396 34.3305L78.2751 33.2605C77.7914 29.9519 76.009 28.1336 72.6065 27.6587C71.614 27.5617 70.6368 27.5894 69.6434 27.6587C67.6496 27.7804 65.6244 27.967 63.6526 28.2881L63.5238 28.351L63.4594 28.414C62.9961 29.7722 62.3761 31.0858 61.9134 32.4422V32.631H56.438L51.4785 39.5379L50.8338 39.5546V25.0152H45.1652V50.7581H50.8338V45.0934H51.4158L55.2785 50.6952L55.3429 50.7581H61.849V50.5693L61.7845 50.5064L56.7601 42.1352V42.0093L62.2355 33.8899L62.2999 33.8269L62.4287 33.764C65.3537 33.1924 68.4849 33.1346 71.447 33.1346C72.1233 33.2998 72.3085 33.4806 72.4777 34.1417L72.5421 34.9599C70.7528 34.9599 68.9042 35.153 67.1311 35.4005L66.8734 35.4634C64.1665 35.9042 62.2661 37.3906 61.7201 40.0581L61.6557 40.3099L61.5913 40.9393C61.5913 42.0354 61.503 43.662 62.0422 44.7158C62.6898 46.6141 64.1894 47.8681 66.2293 48.3664L66.6802 48.4293H69.1924C70.8415 48.2682 72.2579 47.8063 73.8304 47.4222H74.0881L74.1525 47.4852L74.2169 47.5481C75.1043 47.9817 75.8797 48.1752 76.858 48.3664L77.5021 48.4293H79.6382C79.6388 49.2464 79.6391 50.0598 79.6391 50.8689H79.639ZM128.724 44.7636C128.943 43.9099 129.347 43.7985 130.206 43.6306C131.402 43.5407 132.71 43.5441 133.878 43.3159V46.2112C132.954 46.2112 131.874 46.6106 130.914 46.7147L130.077 46.7777C129.683 46.7777 129.44 46.803 129.111 46.5889C128.671 46.1596 128.724 45.2866 128.724 44.7636ZM141.092 45.7706L141.091 46.9125L140.255 46.7777L139.933 46.7147L139.804 46.6518L139.74 46.5889L139.675 46.4L139.611 37.4624C139.206 32.7221 136.615 31.1053 131.816 31.1053C129.327 31.279 126.795 31.5075 124.344 31.9865C124.324 31.996 124.408 35.7363 124.408 37.1477H124.602C126.728 36.888 128.841 36.7747 130.979 36.6441C133.06 36.6441 133.813 36.5069 133.813 38.4065C132.379 38.5339 130.919 38.5527 129.497 38.7841C125.91 39.2223 123.212 40.4474 122.862 44.8895V45.7706C122.981 47.399 123.599 50.0326 125.31 50.8689H145.988L146.89 50.8059V44.26H147.727L151.85 50.8059L151.914 50.8689H158.42L152.752 41.3018V41.2388L159 31.7976H152.43L147.598 38.5953L147.534 38.6583L146.89 38.7212V25H141.157L141.092 45.7706ZM151.657 53.9448V53.7642H150.111V59.8694H151.657L151.721 55.3377L151.914 55.2747L152.107 55.2118C152.864 55.0271 153.396 54.8977 153.589 55.6524L153.653 56.2189V57.7924V59.8065L153.718 59.8694H155.199V55.5894V55.3377L155.393 55.2747L155.586 55.2118C156.211 55.0592 156.916 54.8725 157.132 55.7154L157.196 59.8694H158.742L158.678 55.1489L158.613 54.8971L158.549 54.7083L158.485 54.5824L158.42 54.4565C157.715 53.0778 155.795 53.6332 154.62 54.0159H154.555C153.697 53.5968 152.512 53.4233 151.657 53.9448ZM145.923 55.0859C146.966 55.0222 147.319 55.2637 147.469 56.1559V57.5406C147.333 58.2986 147.014 58.5165 146.084 58.5165C145.57 58.3492 145.364 58.1046 145.215 57.6665L145.15 57.2259C145.15 56.4825 145.006 55.3848 145.923 55.0859ZM143.862 54.8971L143.798 55.0859C143.467 56.0561 143.489 56.9309 143.604 57.9183C143.777 58.7632 144.151 59.5019 145.086 59.8065L145.279 59.8694L145.537 59.9324L146.117 59.9954H146.632L147.147 59.9324L147.405 59.8694L147.598 59.8065C148.496 59.5143 148.814 58.8334 149.015 58.0442C149.183 57.0629 149.213 56.0414 148.887 55.0859C148.18 53.0142 144.79 53.0848 143.862 54.8971ZM139.933 53.7642C138.262 54.3083 138.516 56.2927 138.516 57.6036L138.58 58.1071L138.644 58.4218L138.709 58.6106L138.773 58.7995L138.838 58.9254C139.598 60.4113 141.678 60.0067 143.025 59.7436V58.4218H142.381L141.608 58.4848H141.092C139.471 58.2207 139.837 54.9698 141.157 55.0859C141.761 55.0859 142.354 55.1489 142.96 55.1489L143.025 53.8271C142.32 53.4828 140.673 53.5232 139.933 53.7642ZM136.261 59.8694H137.871V57.9183H136.261V59.8694Z" fill="#4F4F4F"/>
<path fill-rule="evenodd" clip-rule="evenodd" d="M17.7238 45.4081L16.9508 45.471L11.7331 45.534V40.3728H14.1809H16.8864L17.5306 40.4358C18.9768 40.6712 19.5457 41.1721 19.7851 42.5758V43.0163C19.5902 44.3496 19.2158 45.1652 17.7238 45.4081ZM17.595 35.0228L17.2085 35.0857L16.6931 35.1487L11.7331 35.2116V30.1748L16.7575 30.2392C18.0226 30.3937 18.6672 30.4872 19.0765 31.6869V33.1975C18.8331 34.1488 18.6408 34.7674 17.595 35.0228ZM6 50.7581H17.4017L18.2391 50.6952L18.9477 50.6322C23.2242 50.0353 25.4249 47.5939 25.7114 43.394V42.5758C25.5196 39.9512 24.7592 39.0018 23.1348 37.4146L23.1992 37.3516C23.9762 36.8341 25.1406 33.8491 25.0028 33.0087V31.3093C24.5908 27.2835 21.5465 25.439 17.2085 25.0151H6V50.7581Z" fill="#4F4F4F"/>
<path fill-rule="evenodd" clip-rule="evenodd" d="M26.8065 41.5687C27.2795 45.7288 28.8883 47.9317 33.3126 48.2405H34.1499C37.0598 48.051 41.15 46.6773 43.748 45.4081L43.8124 45.3452V27.7845H38.0793L38.0149 42.1981C36.5542 42.6738 33.2639 43.8334 32.7328 41.7575C32.6372 41.2903 32.5803 40.8503 32.5396 40.3728C32.3965 36.1801 32.4751 31.9791 32.4751 27.7845H26.6777L26.8065 41.5687Z" fill="#4F4F4F"/>
</g>
<defs>
<clipPath id="clip0_1_85">
<rect width="153" height="35" fill="white" transform="translate(6 25)"/>
</clipPath>
</defs>
</svg>
