<svg width="165" height="83" viewBox="0 0 165 83" fill="none" xmlns="http://www.w3.org/2000/svg">
<path d="M14.7679 41.832C14.7679 37.9439 17.9285 34.7909 21.8301 34.7909C25.7303 34.7909 28.8922 37.9426 28.8922 41.832C28.8922 45.7228 25.7316 48.8744 21.8314 48.8744C17.9298 48.8744 14.7679 45.7214 14.7679 41.8333" fill="#808080"/>
<path d="M21.8287 23.0565C11.4299 23.0565 3 31.4628 3 41.8332C3 49.6175 7.7139 56.2628 14.5581 59.1546C15.0394 59.3571 15.5596 59.4501 16.0812 59.427C16.6027 59.4038 17.1126 59.2651 17.5742 59.0208C18.0357 58.7765 18.4372 58.4326 18.7499 58.0141C19.0626 57.5956 19.2786 57.1129 19.3823 56.6007C19.5423 55.8023 19.4205 54.9731 19.0379 54.2545C18.6553 53.5358 18.0355 52.9724 17.2843 52.6601V52.6588C13.0424 50.8857 10.0608 46.7082 10.0608 41.8332C10.0608 35.3508 15.3288 30.0963 21.8301 30.0963C28.3313 30.0963 33.6007 35.3508 33.6007 41.8332C33.6007 46.7068 30.619 50.8857 26.3758 52.6574V52.6601C25.6244 52.9726 25.0046 53.5365 24.6222 54.2554C24.2398 54.9744 24.1185 55.8039 24.279 56.6025C24.4394 57.401 24.8717 58.119 25.5021 58.6341C26.1325 59.1491 26.9219 59.4292 27.7355 59.4266C28.2034 59.4237 28.6664 59.3309 29.0993 59.1533C35.9435 56.2614 40.6588 49.6148 40.6588 41.8319C40.6588 31.4601 32.2275 23.0538 21.8287 23.0538" fill="#808080"/>
<path d="M95.2929 39.7492C95.2929 36.3525 92.9568 33.8269 89.3148 33.8269C85.6701 33.8269 83.3353 36.3539 83.3353 39.7505C83.3353 43.1445 85.6714 45.6742 89.3148 45.6742C92.9568 45.6742 95.2929 43.1459 95.2929 39.7505M77.4742 39.7505C77.4742 33.5118 82.4235 28.6935 89.3148 28.6935C96.2438 28.6935 101.154 33.5118 101.154 39.7505C101.154 45.9893 96.2438 50.8063 89.3148 50.8063C82.4248 50.8063 77.4742 45.9893 77.4742 39.7505ZM99.142 55.3244H102.309C104.012 55.3244 104.606 54.6917 104.606 53.1919V28.7002H110.466V53.27C110.466 58.4438 108.368 60.6544 102.785 60.6544H99.1407V55.3231L99.142 55.3244ZM68.08 40.8922C68.08 43.4771 65.4494 45.5423 62.1019 45.5423C58.3174 45.5423 55.9651 43.3169 55.9651 39.6213C55.9651 36.2044 58.4761 33.8592 62.3413 33.8592C65.4104 33.8592 68.08 36.0052 68.08 38.4285V40.8922ZM68.3194 28.6867V31.1558H68.2387C66.7244 29.5672 64.2148 28.6921 61.2264 28.6921C54.8098 28.6921 50.0677 33.4607 50.0677 39.62C50.0677 46.0189 54.9295 50.708 61.4254 50.708C64.3331 50.708 66.7647 49.7925 68.2401 48.1635H68.3208V50.2933C68.3208 53.1542 65.8488 55.2598 62.5807 55.2598C59.2857 55.2598 57.3678 54.3336 55.7028 52.7463L51.8873 56.4082C54.444 59.1142 58.2985 60.653 62.7004 60.653C69.3967 60.653 73.9775 56.1739 73.9775 50.2139V28.6867H68.3194ZM125.442 33.4311C128.569 33.4311 130.747 35.0506 131.024 37.4995H119.778C120.096 35.0506 122.274 33.4311 125.442 33.4311ZM126.047 46.0673C122.534 46.0673 119.773 43.8029 119.7 41.6057H136.727V39.9484C136.727 33.6693 132.371 28.6935 125.322 28.6935C118.67 28.6935 113.919 33.3543 113.919 39.7909C113.919 46.4241 118.931 50.8063 126.298 50.8063C130.812 50.8063 134.049 48.6482 135.738 46.5816L131.767 43.8056C130.001 45.4494 128.398 46.0673 126.048 46.0673M140.179 23H145.836L145.867 37.4995H145.943L155.414 28.6436H162.997L153.182 37.9075L162.958 50.7888H156.188L149.474 41.4792H149.397L145.836 44.8436V50.8049H140.179V23Z" fill="#4F4F4F"/>
</svg>
