<svg width="165" height="83" viewBox="0 0 165 83" fill="none" xmlns="http://www.w3.org/2000/svg">
<path d="M126.783 30.9548V13H130.464V28.4344C129.445 28.9441 128.057 29.907 126.783 30.9548ZM120.382 36.364C121.515 35.0046 122.676 33.6452 124.064 32.4841V13H120.382V36.364ZM77.7325 50.6372C77.7325 55.4233 79.6299 59.9828 83.1133 63.4661C86.5683 66.9212 91.1278 68.8469 95.9422 68.8469C97.9813 68.8469 100.077 68.4221 101.55 67.6858V64.0042C99.822 64.7405 97.7264 65.1653 95.9422 65.1653C88.0693 65.1653 81.4424 58.5385 81.4424 50.6655V47.3521C81.4424 39.4791 88.0976 32.8523 95.9422 32.8523C99.8504 32.8523 103.504 34.3532 106.222 37.0719C108.941 39.7907 110.442 43.4439 110.442 47.3521V68.8752H114.124V46.6441C113.897 41.943 111.886 37.5534 108.488 34.2683C105.061 30.9832 100.615 29.1707 95.9422 29.1707C91.1561 29.1707 86.5966 31.0681 83.1133 34.5515C79.6583 38.0065 77.7325 42.566 77.7325 47.3804V50.6372ZM132.843 41.8014C134.514 40.1305 136.666 39.1959 138.79 39.1959C143.35 39.1959 146.89 42.7643 146.89 47.2954V50.6089C146.89 55.1684 143.321 58.7084 138.79 58.7084C136.581 58.7084 134.457 57.4906 132.786 55.31C131.314 53.3842 130.351 50.7505 130.209 48.3999L127.236 52.0815C127.83 54.8569 129.275 57.5473 131.342 59.4164C133.466 61.3421 136.128 62.4183 138.79 62.4183C145.304 62.4183 150.6 57.1225 150.6 50.6372V47.3238C150.6 44.2369 149.354 41.2916 147.088 39.0543C144.822 36.7887 141.877 35.5427 138.79 35.5427C136.836 35.5427 133.749 36.2507 130.068 39.5641C129.077 40.5553 126.754 42.8775 125.338 44.5201C122.959 47.1255 119.533 51.0054 116.587 54.9418V60.6908C119.844 56.4994 121.713 54.1489 124.8 50.6089C127.519 47.3804 130.917 43.5006 132.843 41.8014ZM45.8442 34.863V30.5017C42.5025 28.7176 38.8775 27.9246 34.0631 27.9246C29.1355 27.9246 24.4627 29.7371 20.9227 32.9939C17.3544 36.279 15.4003 40.5836 15.4003 45.1715V46.3609C15.4003 55.8764 23.0184 63.6077 32.4206 63.6077C40.0387 63.6077 43.1822 61.1156 43.9751 60.3226V49.2495H31.5144V52.9311H40.5201V58.4818H40.4918C39.3307 58.9349 36.9235 59.8978 32.4206 59.8978C28.8523 59.8978 25.4822 58.5101 22.9901 55.9613C20.4696 53.4126 19.1102 50.0142 19.1102 46.3326V45.1431C19.1102 37.8083 25.9636 31.5779 34.0915 31.5779C39.6705 31.6062 43.0122 32.5408 45.8442 34.863ZM72.6915 39.1959C74.0792 39.1959 75.2687 39.4225 76.2315 39.8756C76.6847 38.7428 77.1661 37.7799 77.8458 36.6472C76.8546 35.9392 74.4474 35.486 72.6915 35.486C65.9797 35.486 60.9104 40.5553 60.9104 47.2954V68.8186H64.592V47.2954C64.592 42.5377 67.9055 39.1959 72.6915 39.1959ZM9 45.1715V46.3609C9 52.7612 11.4355 58.7084 15.8251 63.1546C20.2147 67.5725 26.1052 70.008 32.3923 70.008C37.4615 70.008 41.9361 68.8752 45.731 66.6096C48.8462 64.7405 50.2338 62.8714 50.3471 62.7015V42.8775H31.5144V46.5591H46.6655V61.597C44.8814 63.3812 40.6617 66.3548 32.4206 66.3548C27.0398 66.3548 22.0555 64.2874 18.3739 60.5492C14.7206 56.8393 12.7099 51.7983 12.7099 46.3892V45.1998C12.7099 40.0739 15.0038 34.9763 19.0253 31.2097C23.1317 27.3582 28.4841 25.2342 34.0915 25.2342C39.3307 25.2342 42.9556 26.0272 45.8726 27.8113V23.6483C42.814 22.3456 39.1607 21.7792 34.0631 21.7792C20.4696 21.7792 9 32.4841 9 45.1715ZM107.695 68.8186V47.2954C107.695 40.6686 102.512 35.486 95.8856 35.486C92.7987 35.486 89.8534 36.7321 87.5878 38.9977C85.3222 41.2633 84.0762 44.2086 84.0762 47.2671V50.5806C84.0762 56.9809 89.4853 62.3617 95.8573 62.3617C97.6131 62.3617 99.992 61.9369 101.465 60.7191V56.8959C100.02 58.057 97.9529 58.7367 95.8573 58.7367C91.3261 58.7367 87.7578 55.1684 87.7578 50.6372V47.3238C87.7578 42.7643 91.3261 39.2243 95.8573 39.2243C100.417 39.2243 103.957 42.7926 103.957 47.3238V68.8469H107.695V68.8186ZM72.6915 32.7956C75.1837 32.7956 77.3643 33.3337 79.3184 34.4382C80.2246 33.2771 81.1592 32.3708 81.8672 31.6628C79.7998 30.0769 76.2882 29.114 72.7199 29.114C67.594 29.114 62.9495 30.9548 59.6361 34.3249C56.3509 37.6383 54.5385 42.2545 54.5385 47.3238V68.8469H58.2201V47.3238C58.1917 38.7711 64.1389 32.7956 72.6915 32.7956ZM151.619 34.4948C148.164 31.0398 143.605 29.114 138.79 29.114C135.279 29.114 131.767 30.4168 129.813 31.7195C125.791 34.3816 122.506 37.2985 116.559 44.9732V50.4956C121.6 43.9254 126.358 38.7711 129.983 35.9108C132.362 34.0134 135.732 32.824 138.79 32.824C146.663 32.824 153.29 39.4791 153.29 47.3238V50.6372C153.29 54.517 151.761 58.1703 148.985 60.9173C146.238 63.6361 142.613 65.137 138.79 65.137C132.333 65.137 126.641 60.6908 125.112 54.6586L122.506 57.8021C124.404 64.1458 131.257 68.8186 138.79 68.8186C143.605 68.8186 148.136 66.8928 151.619 63.4378C155.074 59.9545 157 55.4233 157 50.6089V47.2954C157 42.5094 155.074 37.9499 151.619 34.4948Z" fill="#4F4F4F"/>
</svg>
