<svg width="165" height="83" viewBox="0 0 165 83" fill="none" xmlns="http://www.w3.org/2000/svg">
<g clip-path="url(#clip0_1_81)">
<path fill-rule="evenodd" clip-rule="evenodd" d="M31.3798 52.701C31.0973 55.0561 29.6848 56.9422 27.4968 57.8867C26.2783 58.4128 24.6423 58.6968 23.3473 58.6076C21.3271 58.5296 19.4292 58.0333 17.6798 57.126C17.0548 56.8017 16.1231 56.1541 15.4077 55.5476C15.2265 55.3944 15.205 55.2961 15.3249 55.1243C15.3897 55.0257 15.509 54.8478 15.7729 54.4573C16.1555 53.8909 16.2032 53.8198 16.2463 53.7534C16.3687 53.5636 16.5676 53.547 16.7638 53.703C16.7845 53.7192 16.7845 53.7192 16.8 53.7315C16.8322 53.7567 16.8322 53.7567 16.9082 53.8164C16.985 53.8769 17.0306 53.9126 17.049 53.9265C18.9357 55.4194 21.1331 56.2803 23.3514 56.3664C26.4378 56.3239 28.6572 54.922 29.0549 52.7692C29.4922 50.4 27.6512 48.3534 24.0495 47.2127C22.923 46.856 20.0757 45.7046 19.5507 45.3935C17.0854 43.9321 15.9327 42.018 16.0965 39.6537C16.3476 36.3765 19.3591 33.9322 23.1643 33.9158C24.866 33.9123 26.564 34.2696 28.1954 34.964C28.773 35.21 29.8043 35.7769 30.1604 36.0455C30.3654 36.1977 30.4059 36.375 30.2884 36.5663C30.2227 36.6772 30.1143 36.8531 29.8855 37.2197L29.8829 37.2238C29.5818 37.7067 29.5724 37.7218 29.5034 37.8347C29.384 38.0183 29.2437 38.0354 29.0285 37.8974C27.2828 36.7127 25.3477 36.1167 23.2194 36.0736C20.5698 36.1266 18.5838 37.7197 18.4532 39.8899C18.4185 41.85 19.8737 43.2811 23.017 44.3721C29.3976 46.4435 31.8393 48.872 31.3797 52.701M23.4999 18.8634C27.6539 18.8634 31.04 22.8459 31.1984 27.8313H15.8016C15.96 22.8459 19.346 18.8634 23.4999 18.8634ZM44.9983 28.7686C44.9983 28.2509 44.5857 27.8313 44.0768 27.8313H34.097C33.8522 21.2488 29.2014 16 23.4999 16C17.7986 16 13.1478 21.2488 12.9029 27.8313L2.9089 27.8315C2.40779 27.8407 2.00434 28.2568 2.00434 28.7686C2.00434 28.793 2.00525 28.8173 2.00705 28.8412H2L3.42465 60.5681C3.42483 60.6564 3.42808 60.7454 3.43459 60.835C3.43604 60.8553 3.43767 60.8753 3.4393 60.8954L3.44237 60.9623L3.4458 60.9658C3.66227 63.1735 5.24822 64.9517 7.40472 65.0338L7.4096 65.0385H39.1115C39.1265 65.0387 39.1415 65.0389 39.1565 65.0389C39.1715 65.0389 39.1866 65.0387 39.2016 65.0385H39.269L39.2705 65.0373C41.4646 64.9767 43.2419 63.1737 43.4296 60.9388L43.4307 60.9377L43.4321 60.9077C43.4339 60.8841 43.4356 60.8608 43.437 60.8372C43.4405 60.7809 43.4428 60.7248 43.4437 60.6691L44.9982 28.817H44.9971C44.998 28.8009 44.9984 28.7848 44.9984 28.7686M150.684 49.4464C151.295 47.4335 153.142 46.0917 155.297 46.0917C157.354 46.0917 159.312 47.5031 159.989 49.4425L160.036 49.5758H150.644L150.684 49.4464ZM162.126 52.3624C162.138 52.363 162.138 52.363 162.157 52.3632C162.176 52.363 162.176 52.363 162.194 52.3624C162.644 52.3416 163 51.9543 163 51.4831C163 51.4603 162.999 51.4406 162.997 51.409C162.998 51.4031 162.998 51.3916 162.998 51.3546C162.998 46.9093 159.548 43.3069 155.294 43.3069C151.04 43.3069 147.59 46.9093 147.59 51.3546C147.59 51.686 147.609 52.0164 147.648 52.3449L147.65 52.3624L147.662 52.4492C147.874 54.0486 148.55 55.5166 149.617 56.7045C149.616 56.7039 149.617 56.705 149.623 56.7112C150.805 58.0264 152.412 58.9227 154.193 59.2579L154.216 59.2625V59.2601L154.332 59.2796C154.391 59.2898 154.454 59.2999 154.538 59.313C156.883 59.5979 158.962 59.2564 160.724 58.3605C161.157 58.1397 161.547 57.8962 161.885 57.6389C161.994 57.556 162.091 57.4759 162.176 57.4008C162.22 57.3621 162.254 57.3296 162.273 57.3108C162.67 56.8972 162.695 56.7506 162.455 56.373C162.191 55.9487 161.958 55.5872 161.759 55.2879C161.689 55.1831 161.628 55.0939 161.577 55.0197C161.549 54.979 161.549 54.979 161.531 54.9533C161.524 54.9432 161.524 54.9432 161.519 54.9368L161.517 54.9336C161.3 54.6606 161.151 54.6356 160.91 54.8505C160.884 54.8735 160.799 54.9405 160.783 54.9571C159.089 56.477 156.775 56.9659 154.465 56.4775C154.035 56.3608 153.632 56.2126 153.262 56.0336C151.814 55.3004 150.789 53.994 150.493 52.4818L150.47 52.3624L162.126 52.3624ZM132.352 49.4464C132.963 47.4335 134.81 46.0917 136.965 46.0917C139.022 46.0917 140.981 47.5031 141.658 49.4425L141.704 49.5758H132.313L132.352 49.4464ZM143.794 52.3624C143.807 52.363 143.807 52.363 143.825 52.3632C143.844 52.363 143.844 52.363 143.863 52.3624C144.312 52.3416 144.668 51.9543 144.668 51.4831C144.668 51.4603 144.668 51.4406 144.666 51.409C144.666 51.4031 144.666 51.3916 144.666 51.3546C144.666 46.9093 141.217 43.3069 136.962 43.3069C132.708 43.3069 129.259 46.9093 129.259 51.3546C129.259 51.686 129.278 52.0164 129.316 52.3449L129.319 52.3624L129.331 52.4492C129.543 54.0486 130.218 55.5166 131.285 56.7045C131.285 56.7039 131.286 56.705 131.291 56.7112C132.474 58.0264 134.08 58.9227 135.861 59.2579L135.885 59.2625V59.2601L136 59.2796C136.06 59.2898 136.123 59.2999 136.207 59.313C138.551 59.5979 140.631 59.2564 142.392 58.3605C142.826 58.1397 143.215 57.8962 143.553 57.6389C143.662 57.556 143.76 57.4759 143.844 57.4008C143.888 57.3621 143.923 57.3296 143.941 57.3108C144.338 56.8972 144.363 56.7506 144.123 56.373C143.859 55.9487 143.627 55.5872 143.427 55.2879C143.357 55.1831 143.297 55.0939 143.246 55.0197C143.217 54.979 143.217 54.979 143.199 54.9533C143.193 54.9432 143.193 54.9432 143.188 54.9368L143.186 54.9336C142.969 54.6606 142.82 54.6356 142.579 54.8505C142.553 54.8735 142.468 54.9405 142.452 54.9571C140.758 56.477 138.444 56.9659 136.134 56.4775C135.704 56.3608 135.302 56.2126 134.931 56.0336C133.484 55.3004 132.458 53.994 132.162 52.4818L132.139 52.3624L143.794 52.3624ZM118.362 56.7947C115.497 56.7947 113.153 54.4997 113.081 51.6237V51.353C113.152 48.4816 115.497 46.1863 118.362 46.1863C121.279 46.1863 123.644 48.5611 123.644 51.4905C123.644 54.4199 121.279 56.7947 118.362 56.7947ZM118.364 43.3724C116.484 43.3724 114.689 44.019 113.246 45.205L113.082 45.3397V43.8554C113.082 43.4596 112.997 43.3724 112.601 43.3724H110.756C110.355 43.3724 110.275 43.4531 110.275 43.8554V67.517C110.275 67.9057 110.365 68 110.756 68H112.601C112.994 68 113.082 67.9077 113.082 67.517V57.6494L113.246 57.7841C114.689 58.9703 116.484 59.6169 118.364 59.6169C122.83 59.6169 126.451 55.9804 126.451 51.4946C126.451 47.0089 122.83 43.3724 118.364 43.3724ZM99.3694 56.6134C96.4464 56.6134 94.0769 54.2595 94.0769 51.355C94.0769 48.4505 96.4466 46.0964 99.3694 46.0964C102.292 46.0964 104.661 48.4505 104.661 51.355C104.661 54.2593 102.292 56.6134 99.3694 56.6134ZM99.371 43.3069C94.8954 43.3069 91.2677 46.9121 91.2677 51.359C91.2677 55.8058 94.8954 59.4111 99.371 59.4111C103.847 59.4111 107.474 55.8058 107.474 51.359C107.474 46.9121 103.847 43.3069 99.371 43.3069ZM81.3071 43.4858C79.6733 43.4858 78.0923 44.0164 76.7807 44.9972L76.6212 45.1165V34.1276C76.6212 33.7633 76.503 33.6444 76.1425 33.6444H74.2119C73.8221 33.6444 73.733 33.7386 73.733 34.1276V59.196C73.733 59.5755 73.8292 59.6795 74.2119 59.6795H76.1425C76.5006 59.6795 76.6212 59.5547 76.6212 59.196V51.0079C76.6413 48.4303 78.7338 46.3498 81.3071 46.3498C83.887 46.3498 85.9819 48.4404 85.9929 51.0265V59.196C85.9929 59.6107 86.0612 59.6793 86.4718 59.6793H88.3976C88.8058 59.6793 88.8766 59.6087 88.8766 59.196V51.0025C88.8612 46.8694 85.4498 43.4858 81.3071 43.4858M54.4066 55.1322L54.4021 55.1393C54.1269 55.5605 54.0116 55.7378 53.9471 55.8395C53.7301 56.1658 53.7571 56.3113 54.0885 56.5943C54.8619 57.2242 55.856 57.8857 56.5268 58.217C58.3929 59.1389 60.4086 59.6261 62.5446 59.6702C63.9244 59.7405 65.6574 59.409 66.9478 58.8276C69.284 57.7748 70.7721 55.7227 71.0329 53.1952C71.4553 49.0997 68.8176 46.5395 62.0235 44.4762L62.0217 44.4757C58.8563 43.4443 57.3693 42.0732 57.3687 40.1589C57.462 38.0431 59.4038 36.4624 62.0236 36.3638C64.1339 36.3691 65.9997 36.9353 67.8329 38.1272C68.2195 38.3641 68.3977 38.3204 68.6576 37.9797C68.6875 37.9294 68.7706 37.8075 69.1181 37.3034L69.1192 37.3017C69.4437 36.8309 69.5505 36.6737 69.5771 36.6272C69.7961 36.2109 69.7648 36.0504 69.3695 35.7672C68.9802 35.4855 67.8836 34.909 67.2565 34.6561C65.5123 33.9531 63.7091 33.6117 61.9144 33.647C57.8303 33.7366 54.6451 36.42 54.4351 39.9404C54.3019 42.4831 55.5793 44.5278 58.2484 46.0394C58.9966 46.4385 61.7324 47.4833 63.0092 47.861C66.64 48.9352 68.533 50.9112 68.1418 53.2426C67.7866 55.3608 65.5897 56.7695 62.507 56.8659C60.2714 56.8189 58.019 55.9912 56.0633 54.5064C56.0535 54.4993 56.0039 54.462 55.9125 54.3931C55.784 54.2964 55.784 54.2964 55.7648 54.2818C55.3661 54.0038 55.1316 54.0269 54.8881 54.3933C54.8588 54.4387 54.556 54.9039 54.4067 55.1323" fill="#4F4F4F"/>
</g>
<defs>
<clipPath id="clip0_1_81">
<rect width="161" height="52" fill="white" transform="translate(2 16)"/>
</clipPath>
</defs>
</svg>
