<svg width="14" height="14" viewBox="0 0 14 14" fill="none" xmlns="http://www.w3.org/2000/svg">
<path d="M6.23915 0.841642C6.47864 0.104593 7.52136 0.104592 7.76085 0.841641L8.84101 4.16606C8.94811 4.49568 9.25528 4.71885 9.60186 4.71885H13.0974C13.8723 4.71885 14.1946 5.71054 13.5676 6.16606L10.7397 8.22066C10.4593 8.42438 10.342 8.78547 10.4491 9.11509L11.5292 12.4395C11.7687 13.1766 10.9251 13.7895 10.2981 13.3339L7.47023 11.2793C7.18984 11.0756 6.81016 11.0756 6.52977 11.2793L3.70185 13.3339C3.07488 13.7895 2.2313 13.1766 2.47078 12.4395L3.55095 9.11509C3.65805 8.78547 3.54072 8.42438 3.26033 8.22066L0.432411 6.16606C-0.19456 5.71054 0.12766 4.71885 0.902639 4.71885H4.39814C4.74472 4.71885 5.05189 4.49568 5.15899 4.16606L6.23915 0.841642Z" fill="#FFC327"/>
</svg>
